<svg width="26" height="26" viewBox="0 0 26 26" fill="none" xmlns="http://www.w3.org/2000/svg">
<path d="M13 26C20.1797 26 26 20.1797 26 13C26 5.8203 20.1797 0 13 0C5.8203 0 0 5.8203 0 13C0 20.1797 5.8203 26 13 26Z" fill="#3C5A99"/>
<path d="M14.0107 19.5001V13.5791H16.0064L16.306 11.2609H14.0107V9.78569C14.0107 9.11538 14.1961 8.66089 15.1558 8.66089H16.372V6.59409C16.1613 6.56616 15.4351 6.50269 14.5896 6.50269C12.825 6.50269 11.6164 7.57925 11.6164 9.55718V11.2634H9.6283V13.5816H11.6164V19.5001H14.0107Z" fill="#FDFDFD"/>
</svg>
