<svg width="32" height="32" viewBox="0 0 32 32" fill="none" xmlns="http://www.w3.org/2000/svg">
<g clip-path="url(#clip0_364_659)">
<path d="M25.3333 15.3333V24.6667C25.3333 25.0347 25.0347 25.3333 24.6667 25.3333C24.2987 25.3333 24 25.0347 24 24.6667V15.3333C24 14.9653 24.2987 14.6667 24.6667 14.6667C25.0347 14.6667 25.3333 14.9653 25.3333 15.3333ZM31.3333 12C30.9653 12 30.6667 12.2987 30.6667 12.6667V26C30.6667 28.5733 28.5733 30.6667 26 30.6667H6C3.42667 30.6667 1.33333 28.5733 1.33333 26V6C1.33333 3.42667 3.42667 1.33333 6 1.33333H19.3333C19.7013 1.33333 20 1.03467 20 0.666667C20 0.298667 19.7013 0 19.3333 0H6C2.692 0 0 2.692 0 6V26C0 29.308 2.692 32 6 32H26C29.308 32 32 29.308 32 26V12.6667C32 12.2987 31.7013 12 31.3333 12ZM19.764 5.62267L23.5373 4.19467L25.048 0.418667C25.2507 -0.088 26.0827 -0.088 26.2867 0.418667L27.8 4.2L31.5813 5.71333C31.8347 5.81467 32 6.06 32 6.332C32 6.604 31.8333 6.84933 31.5813 6.95067L27.8 8.464L26.2867 12.2453C26.1853 12.4987 25.94 12.664 25.668 12.664C25.396 12.664 25.1507 12.4973 25.0493 12.2453L23.5333 8.456L19.7427 6.85867C19.492 6.752 19.3293 6.504 19.3347 6.232C19.34 5.96 19.5107 5.71733 19.7653 5.62133L19.764 5.62267ZM21.7947 6.28L24.3067 7.33867C24.4707 7.408 24.6 7.54 24.6667 7.70533L25.6667 10.2053L26.6667 7.70533C26.7347 7.536 26.868 7.40133 27.0387 7.33333L29.5387 6.33333L27.0387 5.33333C26.8693 5.26533 26.7347 5.132 26.6667 4.96133L25.6667 2.46133L24.6667 4.96133C24.5973 5.13467 24.4587 5.27067 24.2827 5.33733L21.7947 6.28ZM14.9227 8.32133L19.9693 24.4693C20.08 24.82 19.884 25.1947 19.532 25.304C19.4667 25.3253 19.3987 25.3347 19.3333 25.3347C19.0493 25.3347 18.7867 25.152 18.6973 24.8667L17.1773 20.0013H8.15733L6.63733 24.8667C6.52667 25.2187 6.152 25.4147 5.80267 25.304C5.45067 25.1947 5.25467 24.82 5.36533 24.4693L10.412 8.32133C10.7267 7.31333 11.6133 6.66133 12.668 6.66133C13.724 6.66133 14.608 7.31333 14.9227 8.32133ZM16.76 18.668L13.6507 8.71867C13.484 8.18533 13.0333 7.996 12.6667 7.996C12.3 7.996 11.8493 8.18667 11.6827 8.72L8.57333 18.668H16.76Z" fill="white"/>
</g>
<defs>
<clipPath id="clip0_364_659">
<rect width="32" height="32" fill="white"/>
</clipPath>
</defs>
</svg>
