<svg width="32" height="32" viewBox="0 0 32 32" fill="none" xmlns="http://www.w3.org/2000/svg">
<g clip-path="url(#clip0_364_670)">
<path d="M16.6667 2.7V0.666667C16.6667 0.298667 16.368 0 16 0C15.632 0 15.3333 0.298667 15.3333 0.666667V2.7C7.556 3.052 1.33333 9.47067 1.33333 17.3333C1.33333 21.2013 2.84933 24.7133 5.304 27.336C3.89467 27.9307 2.66667 29.1893 2.66667 31.3333C2.66667 31.7013 2.96533 32 3.33333 32C3.70133 32 4 31.7013 4 31.3333C4 29.2667 5.49467 28.5907 6.372 28.3693C8.952 30.6227 12.3147 32 16 32C19.6853 32 23.0493 30.6227 25.628 28.3693C26.5053 28.5893 28 29.2653 28 31.3333C28 31.7013 28.2987 32 28.6667 32C29.0347 32 29.3333 31.7013 29.3333 31.3333C29.3333 29.1893 28.1067 27.9307 26.696 27.336C29.1507 24.7133 30.6667 21.2013 30.6667 17.3333C30.6667 9.47067 24.444 3.052 16.6667 2.7ZM16 30.6667C8.648 30.6667 2.66667 24.6853 2.66667 17.3333C2.66667 9.98133 8.648 4 16 4C23.352 4 29.3333 9.98133 29.3333 17.3333C29.3333 24.6853 23.352 30.6667 16 30.6667ZM21.7333 20.1333C22.028 20.3547 22.088 20.772 21.8667 21.0667C21.736 21.2413 21.536 21.3333 21.3333 21.3333C21.1947 21.3333 21.0547 21.2893 20.9347 21.2L15.6013 17.2C15.4333 17.0747 15.3347 16.876 15.3347 16.6667V8.66667C15.3347 8.29867 15.6333 8 16.0013 8C16.3693 8 16.668 8.29867 16.668 8.66667V16.3333L21.7347 20.1333H21.7333ZM1.33333 6C1.33333 6.368 1.03467 6.66667 0.666667 6.66667C0.298667 6.66667 0 6.368 0 6C0 2.664 2.636 0.0506667 6 0.0506667C6.368 0.0506667 6.66667 0.349333 6.66667 0.717333C6.66667 1.08533 6.368 1.384 6 1.384C2.96933 1.384 1.33333 3.76267 1.33333 6ZM32 6C32 6.368 31.7013 6.66667 31.3333 6.66667C30.9653 6.66667 30.6667 6.368 30.6667 6C30.6667 3.76133 29.0307 1.384 26 1.384C25.632 1.384 25.3333 1.08533 25.3333 0.717333C25.3333 0.349333 25.632 0.0506667 26 0.0506667C29.364 0.0506667 32 2.664 32 6Z" fill="white"/>
</g>
<defs>
<clipPath id="clip0_364_670">
<rect width="32" height="32" fill="white"/>
</clipPath>
</defs>
</svg>
