<svg width="32" height="32" viewBox="0 0 32 32" fill="none" xmlns="http://www.w3.org/2000/svg">
<g clip-path="url(#clip0_364_675)">
<path d="M27.3333 8H25.3333V4.66667C25.3333 2.09333 23.24 0 20.6667 0H8.66667C6.09333 0 4 2.09333 4 4.66667V12.6667C4 13.368 4.15733 14.0507 4.45333 14.672C1.97867 14.784 0 16.832 0 19.3333V27.3333C0 29.9067 2.09333 32 4.66667 32H16.6667C19.24 32 21.3333 29.9067 21.3333 27.3333V25.3333H27.3333C29.9067 25.3333 32 23.24 32 20.6667V12.6667C32 10.0933 29.9067 8 27.3333 8ZM5.33333 4.66667C5.33333 2.828 6.82933 1.33333 8.66667 1.33333H20.6667C22.504 1.33333 24 2.828 24 4.66667V8H15.3333C12.76 8 10.6667 10.0933 10.6667 12.6667V14.6667H6.00133C5.56933 14.092 5.33333 13.392 5.33333 12.6667V4.66667ZM16.6667 16C17.516 16 18.2933 16.32 18.8827 16.8453L18.8627 16.8627L12.4667 23.2587C11.5107 24.2147 9.84533 24.2147 8.89067 23.2587L2.48133 16.852L2.46267 16.8347C3.05067 16.316 3.82133 16 4.66533 16H16.6667ZM20 27.3333C20 29.172 18.504 30.6667 16.6667 30.6667H4.66667C2.82933 30.6667 1.33333 29.172 1.33333 27.3333V19.3333C1.33333 18.824 1.448 18.3413 1.65333 17.9093L7.94667 24.2027C8.676 24.932 9.64533 25.3347 10.6773 25.3347C11.7093 25.3347 12.6787 24.9333 13.408 24.2027L19.6853 17.9253C19.8853 18.3533 19.9987 18.8307 19.9987 19.3347V27.3347L20 27.3333ZM30.6667 20.6667C30.6667 22.5053 29.1707 24 27.3333 24H21.3333V19.3333C21.3333 16.76 19.24 14.6667 16.6667 14.6667H12V12.6667C12 10.828 13.496 9.33333 15.3333 9.33333H27.3333C29.1707 9.33333 30.6667 10.828 30.6667 12.6667V20.6667ZM28 13.3333C28 14.0693 27.4027 14.6667 26.6667 14.6667C25.9307 14.6667 25.3333 14.0693 25.3333 13.3333C25.3333 12.5973 25.9307 12 26.6667 12C27.4027 12 28 12.5973 28 13.3333Z" fill="white"/>
</g>
<defs>
<clipPath id="clip0_364_675">
<rect width="32" height="32" fill="white"/>
</clipPath>
</defs>
</svg>
