<svg width="32" height="32" viewBox="0 0 32 32" fill="none" xmlns="http://www.w3.org/2000/svg">
<g clip-path="url(#clip0_364_657)">
<path d="M20.6667 21.3333C18.828 21.3333 17.3333 22.828 17.3333 24.6667V28.6667C17.3333 30.5053 18.828 32 20.6667 32C22.5053 32 24 30.5053 24 28.6667V24.6667C24 22.828 22.5053 21.3333 20.6667 21.3333ZM22.6667 28.6667C22.6667 29.7693 21.7693 30.6667 20.6667 30.6667C19.564 30.6667 18.6667 29.7693 18.6667 28.6667V24.6667C18.6667 23.564 19.564 22.6667 20.6667 22.6667C21.7693 22.6667 22.6667 23.564 22.6667 24.6667V28.6667ZM26 2.66667H24V0.666667C24 0.298667 23.7013 0 23.3333 0C22.9653 0 22.6667 0.298667 22.6667 0.666667V2.66667H9.33333V0.666667C9.33333 0.298667 9.03467 0 8.66667 0C8.29867 0 8 0.298667 8 0.666667V2.66667H6C2.692 2.66667 0 5.35867 0 8.66667V26C0 28.1813 1.18533 30.1933 3.09333 31.2507C3.196 31.3067 3.30667 31.3333 3.416 31.3333C3.65067 31.3333 3.87867 31.2093 4 30.9893C4.17867 30.668 4.06133 30.2613 3.74 30.0827C2.256 29.26 1.33333 27.696 1.33333 26V12H30.6667V18C30.6667 18.368 30.9653 18.6667 31.3333 18.6667C31.7013 18.6667 32 18.368 32 18V8.66667C32 5.35867 29.308 2.66667 26 2.66667ZM1.33333 10.6667V8.66667C1.33333 6.09333 3.42667 4 6 4H26C28.5733 4 30.6667 6.09333 30.6667 8.66667V10.6667H1.33333ZM15.3227 22.6667L15.948 31.2853C15.976 31.672 15.6707 32 15.2827 32C14.9333 32 14.6427 31.7307 14.6173 31.3813L14.0053 22.9413L12.1253 27.0773C11.816 27.7573 10.8493 27.7573 10.54 27.0773L8.66 22.94L8.048 31.38C8.02267 31.728 7.732 31.9987 7.38267 31.9987C6.996 31.9987 6.68933 31.6693 6.71733 31.284L7.34267 22.6653C7.4 21.7253 7.972 21.332 8.66 21.332C9.116 21.332 9.54 21.6547 9.78133 22.1853L11.3333 25.5987L12.8853 22.1853C13.1267 21.6547 13.5507 21.332 14.0067 21.332C14.6947 21.332 15.2667 21.7253 15.324 22.6653L15.3227 22.6667ZM32 22V30.9707C32 31.4613 31.664 31.876 31.184 31.9773C31.1107 31.9933 31.0373 32.0013 30.9653 32.0013C30.564 32.0013 30.1987 31.7693 30.0293 31.3893L26.668 23.812V31.3347C26.668 31.7027 26.3693 32.0013 26.0013 32.0013C25.6333 32.0013 25.3347 31.7027 25.3347 31.3347V22.38C25.3347 21.888 25.6707 21.4733 26.152 21.372C26.6307 21.268 27.108 21.512 27.3053 21.9627L30.6667 29.5387V22.0013C30.6667 21.6333 30.9653 21.3347 31.3333 21.3347C31.7013 21.3347 32 21.632 32 22Z" fill="white"/>
</g>
<defs>
<clipPath id="clip0_364_657">
<rect width="32" height="32" fill="white"/>
</clipPath>
</defs>
</svg>
