<svg width="32" height="32" viewBox="0 0 32 32" fill="none" xmlns="http://www.w3.org/2000/svg">
<g clip-path="url(#clip0_364_655)">
<path d="M14 30.6667H6C3.42667 30.6667 1.33333 28.5733 1.33333 26V20.6667C1.33333 18.0933 3.42667 16 6 16H14C15.6613 16 17.2107 16.8947 18.0427 18.3333C18.1653 18.5467 18.3893 18.6667 18.62 18.6667C18.7333 18.6667 18.848 18.6387 18.9533 18.5773C19.272 18.3933 19.3813 17.9853 19.196 17.6667C18.7307 16.8613 18.084 16.1987 17.3333 15.696V13.3333C17.3333 12.22 16.6453 11.2653 15.6733 10.8667C15.88 10.3813 16 9.86533 16 9.33333C16 7.128 14.2053 5.33333 12 5.33333C9.79467 5.33333 8 7.128 8 9.33333C8 9.792 8.08533 10.24 8.24 10.6667H5.33333C3.86267 10.6667 2.66667 11.8627 2.66667 13.3333V15.6827C1.06 16.76 0 18.592 0 20.6667V26C0 29.308 2.692 32 6 32H14C14.368 32 14.6667 31.7013 14.6667 31.3333C14.6667 30.9653 14.368 30.6667 14 30.6667ZM9.33333 9.33333C9.33333 7.86267 10.5293 6.66667 12 6.66667C13.4707 6.66667 14.6667 7.86267 14.6667 9.33333C14.6667 9.80267 14.54 10.256 14.2973 10.6667H9.70267C9.46 10.256 9.33333 9.80267 9.33333 9.33333ZM5.33333 12H14.6667C15.4013 12 16 12.5973 16 13.3333V14.6667H4V13.3333C4 12.5973 4.59867 12 5.33333 12ZM21.3333 0C19.128 0 17.3333 1.79467 17.3333 4C17.3333 6.20533 19.128 8 21.3333 8C23.5387 8 25.3333 6.20533 25.3333 4C25.3333 1.79467 23.5387 0 21.3333 0ZM21.3333 6.66667C19.8627 6.66667 18.6667 5.47067 18.6667 4C18.6667 2.52933 19.8627 1.33333 21.3333 1.33333C22.804 1.33333 24 2.52933 24 4C24 5.47067 22.804 6.66667 21.3333 6.66667ZM24 22V31.3333C24 31.7013 23.7013 32 23.3333 32C22.9653 32 22.6667 31.7013 22.6667 31.3333V22C22.6667 21.632 22.9653 21.3333 23.3333 21.3333C23.7013 21.3333 24 21.632 24 22ZM28.6667 21.3333H26.6667C25.932 21.3333 25.3333 21.9307 25.3333 22.6667V31.3333C25.3333 31.7013 25.632 32 26 32C26.368 32 26.6667 31.7013 26.6667 31.3333V28H28.6667C30.504 28 32 26.5053 32 24.6667C32 22.828 30.504 21.3333 28.6667 21.3333ZM28.6667 26.6667H26.6667V22.6667H28.6667C29.7693 22.6667 30.6667 23.564 30.6667 24.6667C30.6667 25.7693 29.7693 26.6667 28.6667 26.6667ZM21.3333 22C21.3333 22.368 21.0347 22.6667 20.6667 22.6667H18.6667V31.3333C18.6667 31.7013 18.368 32 18 32C17.632 32 17.3333 31.7013 17.3333 31.3333V22.6667H15.3333C14.9653 22.6667 14.6667 22.368 14.6667 22C14.6667 21.632 14.9653 21.3333 15.3333 21.3333H20.6667C21.0347 21.3333 21.3333 21.632 21.3333 22Z" fill="white"/>
</g>
<defs>
<clipPath id="clip0_364_655">
<rect width="32" height="32" fill="white"/>
</clipPath>
</defs>
</svg>
